<svg width="18" height="20" viewBox="0 0 18 20" fill="none" xmlns="http://www.w3.org/2000/svg">
<path fill-rule="evenodd" clip-rule="evenodd" d="M8.99984 0C7.30395 0 5.68801 0.70782 4.50446 1.95055C3.32249 3.19162 2.6665 4.86488 2.6665 6.6C2.6665 9.7272 2.02935 11.6656 1.44576 12.789C1.15291 13.3528 0.868882 13.7204 0.674044 13.9364C0.576368 14.0446 0.500379 14.1156 0.455919 14.1545C0.433671 14.1739 0.419269 14.1854 0.413941 14.1896C0.412412 14.1908 0.411629 14.1914 0.411621 14.1914C0.411616 14.1914 0.412038 14.1911 0.412899 14.1904L0.417767 14.1869L0.421598 14.1841L0.423869 14.1825L0.425094 14.1817C0.425094 14.1817 0.425294 14.1815 0.427586 14.1846L0.999836 16H16.9998L17.5721 14.1846C17.573 14.1833 17.572 14.1804 17.5693 14.1762C17.5513 14.1484 17.4595 14.0628 17.3934 14.001C17.3602 13.9701 17.3335 13.9451 17.3256 13.9364C17.1308 13.7204 16.8468 13.3528 16.5539 12.789C16.0301 11.7807 15.4631 10.1158 15.3525 7.52402C15.3399 7.22822 15.3332 6.92035 15.3332 6.6C15.3332 4.86491 14.6772 3.1916 13.4951 1.95052C12.3116 0.707808 10.6957 0 8.99984 0ZM5.95274 3.32986C6.76958 2.47217 7.86674 2 8.99984 2C10.1329 2 11.2301 2.4722 12.0469 3.32989C12.8654 4.18921 13.3332 5.36467 13.3332 6.6C13.3332 10.0062 14.0293 12.2677 14.7791 13.711C14.8313 13.8114 14.8836 13.9077 14.9359 14H3.06378C3.11606 13.9077 3.1684 13.8114 3.22057 13.711C3.97032 12.2677 4.6665 10.0062 4.6665 6.6C4.6665 5.36468 5.13432 4.1892 5.95274 3.32986ZM9 18C8.44772 18 8 17.5523 8 17H6C6 18.6569 7.34315 20 9 20C10.6569 20 12 18.6569 12 17H10C10 17.5523 9.55229 18 9 18Z" fill="black"/>
</svg>
