<svg width="18" height="20" viewBox="0 0 18 20" fill="none" xmlns="http://www.w3.org/2000/svg">
<path fill-rule="evenodd" clip-rule="evenodd" d="M5.95225 3.32986C6.76909 2.47217 7.86625 2 8.99935 2C9.24016 2 9.47894 2.02129 9.71349 2.06292L10.6981 2.23766L11.0476 0.268435L10.063 0.0936899C9.71389 0.0317349 9.35818 0 8.99935 0C7.30346 0 5.68752 0.707817 4.50398 1.95055C3.32201 3.19161 2.66601 4.86488 2.66601 6.6C2.66601 9.7272 2.02886 11.6656 1.44528 12.789C1.15242 13.3528 0.868394 13.7204 0.673556 13.9364C0.57588 14.0446 0.499891 14.1156 0.45543 14.1545C0.433183 14.1739 0.418781 14.1854 0.413453 14.1896C0.411909 14.1908 0.411126 14.1914 0.411133 14.1914C0.411138 14.1914 0.41156 14.191 0.412411 14.1904L0.417278 14.1869L0.421109 14.1841L0.42338 14.1825L0.424606 14.1817C0.424606 14.1817 0.424805 14.1815 0.427098 14.1846L0.999347 16H16.9993L17.5717 14.1842C17.5738 14.1814 17.5739 14.1816 17.5739 14.1816L17.575 14.1823L17.577 14.1837L17.5805 14.1862L17.5854 14.1898C17.5877 14.1914 17.5868 14.1908 17.5868 14.1908C17.5842 14.1888 17.5746 14.1813 17.5587 14.1678C17.527 14.1408 17.4704 14.0901 17.3954 14.0119C17.2457 13.856 17.021 13.5892 16.7743 13.1826C16.283 12.3729 15.6893 10.9831 15.4454 8.76569L15.3361 7.77168L13.3481 7.9903L13.4574 8.98431C13.7129 11.3071 14.3234 12.9199 14.9354 14H3.06329C3.11557 13.9077 3.16792 13.8114 3.22009 13.711C3.96984 12.2677 4.66601 10.0062 4.66601 6.6C4.66601 5.36468 5.13383 4.1892 5.95225 3.32986ZM8.99951 18C8.44723 18 7.99951 17.5523 7.99951 17H5.99951C5.99951 18.6569 7.34266 20 8.99951 20C10.6564 20 11.9995 18.6569 11.9995 17H9.99951C9.99951 17.5523 9.5518 18 8.99951 18Z" fill="black"/>
</svg>
