<svg width="20" height="20" viewBox="0 0 18 22" fill="none" xmlns="http://www.w3.org/2000/svg">
<path fill-rule="evenodd" clip-rule="evenodd" d="M9.68559 2.03367C8.07355 1.87502 6.45639 2.28035 5.10976 3.18056C3.76312 4.08078 2.77036 5.42015 2.3007 6.97038C1.83104 8.52062 1.91355 10.1858 2.53417 11.682C3.15478 13.1782 4.27509 14.4128 5.70412 15.1755C7.13316 15.9382 8.78247 16.1817 10.3709 15.8644C11.9594 15.5472 13.3886 14.6889 14.4151 13.4358C15.2287 12.4426 15.7493 11.2501 15.9294 9.99162H9.00908V7.99162H17.9989L18 8.99058C18.0022 11.0732 17.282 13.0921 15.9623 14.7032C14.6425 16.3143 12.8049 17.4178 10.7626 17.8257C8.72031 18.2336 6.59978 17.9205 4.76244 16.94C2.92511 15.9594 1.48472 14.3719 0.686785 12.4482C-0.11115 10.5245 -0.217234 8.38365 0.386615 6.39049C0.990463 4.39733 2.26687 2.67528 3.99826 1.51786C5.72965 0.360447 7.80885 -0.16069 9.88147 0.0432836C11.9541 0.247257 13.8918 1.16371 15.3644 2.63644L13.9501 4.05057C12.8047 2.90511 11.2976 2.19231 9.68559 2.03367Z" fill="black"/>
</svg>
