<svg width="24" height="24" viewBox="0 0 24 26" fill="none" xmlns="http://www.w3.org/2000/svg">
<path d="M11.9964 4.62175C14.4 4.62175 14.6821 4.63247 15.6321 4.67533C16.5107 4.71463 16.9857 4.86108 17.3036 4.98611C17.725 5.15043 18.025 5.34332 18.3393 5.65767C18.6536 5.97202 18.85 6.27208 19.0107 6.69359C19.1321 7.01151 19.2821 7.4866 19.3214 8.36535C19.3643 9.31554 19.375 9.59774 19.375 12.0018C19.375 14.4058 19.3643 14.688 19.3214 15.6382C19.2821 16.517 19.1357 16.9921 19.0107 17.31C18.8464 17.7315 18.6536 18.0316 18.3393 18.3459C18.025 18.6602 17.725 18.8567 17.3036 19.0175C16.9857 19.1389 16.5107 19.2889 15.6321 19.3282C14.6821 19.3711 14.4 19.3818 11.9964 19.3818C9.59286 19.3818 9.31071 19.3711 8.36071 19.3282C7.48214 19.2889 7.00714 19.1425 6.68929 19.0175C6.26786 18.8531 5.96786 18.6602 5.65357 18.3459C5.33929 18.0316 5.14286 17.7315 4.98214 17.31C4.86071 16.9921 4.71071 16.517 4.67143 15.6382C4.62857 14.688 4.61786 14.4058 4.61786 12.0018C4.61786 9.59774 4.62857 9.31554 4.67143 8.36535C4.71071 7.4866 4.85714 7.01151 4.98214 6.69359C5.14643 6.27208 5.33929 5.97202 5.65357 5.65767C5.96786 5.34332 6.26786 5.14685 6.68929 4.98611C7.00714 4.86466 7.48214 4.71463 8.36071 4.67533C9.31071 4.62889 9.59643 4.62175 11.9964 4.62175ZM11.9964 3C9.55357 3 9.24643 3.01072 8.28571 3.05358C7.32857 3.09645 6.675 3.25005 6.10357 3.47152C5.51071 3.70014 5.01071 4.01091 4.51071 4.51101C4.01071 5.01111 3.70357 5.51478 3.47143 6.10419C3.25 6.67573 3.09643 7.32943 3.05357 8.29034C3.01071 9.24767 3 9.55487 3 11.9982C3 14.4416 3.01071 14.7488 3.05357 15.7097C3.09643 16.667 3.25 17.3207 3.47143 17.8958C3.7 18.4888 4.01071 18.9889 4.51071 19.489C5.01071 19.9891 5.51429 20.2963 6.10357 20.5285C6.675 20.75 7.32857 20.9036 8.28929 20.9464C9.25 20.9893 9.55357 21 12 21C14.4464 21 14.75 20.9893 15.7107 20.9464C16.6679 20.9036 17.3214 20.75 17.8964 20.5285C18.4893 20.2999 18.9893 19.9891 19.4893 19.489C19.9893 18.9889 20.2964 18.4852 20.5286 17.8958C20.75 17.3243 20.9036 16.6706 20.9464 15.7097C20.9893 14.7488 21 14.4451 21 11.9982C21 9.5513 20.9893 9.24767 20.9464 8.28676C20.9036 7.32943 20.75 6.67573 20.5286 6.10062C20.3 5.50764 19.9893 5.00754 19.4893 4.50744C18.9893 4.00734 18.4857 3.70014 17.8964 3.46795C17.325 3.24648 16.6714 3.09288 15.7107 3.05001C14.7464 3.01072 14.4393 3 11.9964 3Z" fill="black"/>
<path d="M12 7C9.24111 7 7 9.23725 7 12C7 14.7628 9.23725 17 12 17C14.7628 17 17 14.7628 17 12C17 9.23725 14.7628 7 12 7ZM12 15.2419C10.2071 15.2419 8.75425 13.789 8.75425 11.9961C8.75425 10.2032 10.2071 8.75039 12 8.75039C13.7929 8.75039 15.2457 10.2032 15.2457 11.9961C15.2457 13.789 13.7929 15.2419 12 15.2419Z" fill="black"/>
<path d="M17 8C17.5523 8 18 7.55228 18 7C18 6.44772 17.5523 6 17 6C16.4477 6 16 6.44772 16 7C16 7.55228 16.4477 8 17 8Z" fill="black"/>
</svg>