<svg width="33" height="34" viewBox="0 0 33 34" fill="none" xmlns="http://www.w3.org/2000/svg">
<path d="M0 0.778564H16.2214V17H0V0.778564Z" fill="black"/>
<path d="M8.27292 25.0247L16.2214 17V32.7348H0L8.27292 25.0247Z" fill="black"/>
<path d="M16.2212 25.1107C16.2212 20.6313 19.8525 17 24.3319 17C28.8113 17 32.4426 20.6313 32.4426 25.1107C32.4426 29.5901 28.8113 33.2214 24.3319 33.2214C19.8525 33.2214 16.2212 29.5901 16.2212 25.1107Z" fill="black"/>
<path d="M32.4426 0.778589C30.3124 0.778589 28.203 1.19817 26.2349 2.01337C24.2669 2.82857 22.4786 4.02343 20.9723 5.52973C19.466 7.03603 18.2712 8.82426 17.456 10.7923C16.6408 12.7604 16.2212 14.8698 16.2212 17L32.4426 17L32.4426 0.778589Z" fill="black"/>
</svg>