<svg width="24" height="24" viewBox="0 0 24 24" fill="none" xmlns="http://www.w3.org/2000/svg">
<path fill-rule="evenodd" clip-rule="evenodd" d="M8.95225 5.32986C9.76909 4.47217 10.8663 4 11.9993 4C12.2402 4 12.4789 4.02129 12.7135 4.06292L13.6981 4.23766L14.0476 2.26843L13.063 2.09369C12.7139 2.03173 12.3582 2 11.9993 2C10.3035 2 8.68752 2.70782 7.50398 3.95055C6.32201 5.19161 5.66601 6.86488 5.66601 8.6C5.66601 11.7272 5.02886 13.6656 4.44528 14.789C4.15242 15.3528 3.86839 15.7204 3.67356 15.9364C3.57588 16.0446 3.49989 16.1156 3.45543 16.1545C3.43318 16.1739 3.41878 16.1854 3.41345 16.1896C3.41191 16.1908 3.41113 16.1914 3.41113 16.1914C3.41114 16.1914 3.41156 16.191 3.41241 16.1904L3.41728 16.1869L3.42111 16.1841L3.42338 16.1825L3.42461 16.1817C3.42461 16.1817 3.42481 16.1815 3.4271 16.1846L3.99935 18H19.9993L20.5717 16.1842C20.5738 16.1814 20.5739 16.1816 20.5739 16.1816L20.575 16.1823L20.577 16.1837L20.5805 16.1862L20.5854 16.1898C20.5877 16.1914 20.5868 16.1908 20.5868 16.1908C20.5842 16.1888 20.5746 16.1813 20.5587 16.1678C20.527 16.1408 20.4704 16.0901 20.3954 16.0119C20.2457 15.856 20.021 15.5892 19.7743 15.1826C19.283 14.3729 18.6893 12.9831 18.4454 10.7657L18.3361 9.77168L16.3481 9.9903L16.4574 10.9843C16.7129 13.3071 17.3234 14.9199 17.9354 16H6.06329C6.11557 15.9077 6.16792 15.8114 6.22009 15.711C6.96984 14.2677 7.66601 12.0062 7.66601 8.6C7.66601 7.36468 8.13383 6.1892 8.95225 5.32986ZM11.9995 20C11.4472 20 10.9995 19.5523 10.9995 19H8.99951C8.99951 20.6569 10.3427 22 11.9995 22C13.6564 22 14.9995 20.6569 14.9995 19H12.9995C12.9995 19.5523 12.5518 20 11.9995 20Z" fill="black"/>
<path d="M18 8C19.6569 8 21 6.65685 21 5C21 3.34315 19.6569 2 18 2C16.3431 2 15 3.34315 15 5C15 6.65685 16.3431 8 18 8Z" fill="#FCA119"/>
</svg>
