<svg width="20" height="20" viewBox="0 0 20 20" fill="none" xmlns="http://www.w3.org/2000/svg">
<path fill-rule="evenodd" clip-rule="evenodd" d="M6.83301 8.33268C6.83301 6.58378 8.25077 5.16602 9.99967 5.16602C11.7486 5.16602 13.1663 6.58378 13.1663 8.33268C13.1663 10.0816 11.7486 11.4993 9.99967 11.4993C8.25077 11.4993 6.83301 10.0816 6.83301 8.33268ZM9.99967 3.16602C7.1462 3.16602 4.83301 5.47921 4.83301 8.33268C4.83301 9.84073 5.4791 11.1979 6.50958 12.1424C6.23494 12.2483 5.96582 12.3669 5.70337 12.4981C4.38939 13.1551 3.28018 14.1091 2.50095 15.2781L1.94629 16.1101L3.61044 17.2195L4.1651 16.3874C4.73698 15.5295 5.57128 14.8003 6.5978 14.287C7.62457 13.7736 8.79834 13.4994 9.99969 13.4994C11.201 13.4994 12.3748 13.7736 13.4016 14.287C14.4281 14.8003 15.2624 15.5295 15.8343 16.3874L16.3889 17.2195L18.0531 16.1101L17.4984 15.2781C16.7192 14.1091 15.61 13.1551 14.296 12.4981C14.0336 12.3669 13.7644 12.2483 13.4898 12.1424C14.5203 11.1979 15.1663 9.84072 15.1663 8.33268C15.1663 5.47921 12.8531 3.16602 9.99967 3.16602Z" fill="black"/>
</svg>
